<?xml version="1.0" encoding="utf-8"?>
<!-- Generator: Adobe Illustrator 24.2.3, SVG Export Plug-In . SVG Version: 6.00 Build 0)  -->
<svg version="1.1" id="Capa_1" xmlns="http://www.w3.org/2000/svg" xmlns:xlink="http://www.w3.org/1999/xlink" x="0px" y="0px"
	 viewBox="0 0 1080 1920" style="enable-background:new 0 0 1080 1920;" xml:space="preserve">
<style type="text/css">
	.st0{fill:none;
	stroke:#CCCCCC;
	stroke-width:2;
	stroke-miterlimit:10;
	stroke-dasharray:2500;
	stroke-dashoffset:0;
	stroke-dasharray:12.0001,12.0001;
		-webkit-animation:animacion 20s forwards 2;
   		-moz-animation:animacion 20s forwards 2;
   		-o-animation:animacion 20s forwards 2;
   		animation:animacion 20s forwards 2;
	}
	.st1{fill:none;stroke:#CCCCCC;stroke-width:2;stroke-miterlimit:10;stroke-dasharray:11.9376,11.9376;
		-webkit-animation:animacion 10s forwards 3;
   		-moz-animation:animacion 10s forwards 3;
   		-o-animation:animacion 10s forwards 3;
   		animation:animacion 10s forwards 3;
	}
	.st2{fill:none;
	stroke:#CCCCCC;
	stroke-width:2;
		stroke-miterlimit:10;
		-webkit-animation:animacion 10s forwards;
   		-moz-animation:animacion 10s forwards;
   		-o-animation:animacion 10s forwards;
   		animation:animacion 10s forwards;
	}
	.st3{fill:none;
	stroke:#CCCCCC;
	stroke-width:2;
	stroke-miterlimit:10;
	stroke-dasharray:11.8755,11.8755;
	-webkit-animation:animacion 50s forwards 2;
	-moz-animation:animacion 50s forwards 2;
	-o-animation:animacion 50s forwards 2;
	animation:animacion 50s forwards 2;
	}
	.st4{
		fill:none;stroke:#CCCCCC;
		stroke-width:2;
		stroke-miterlimit:10;
		stroke-dasharray:12.0092,12.0092;
			-webkit-animation:animacion 50s forwards 2;
			-moz-animation:animacion 50s forwards 2;
			-o-animation:animacion 50s forwards 2;
			animation:animacion 50s forwards 2;
		}
	.st5{fill:none;stroke:#CCCCCC;stroke-width:2;stroke-miterlimit:10;stroke-dasharray:12.064,12.064;
				-webkit-animation:animacion 20s forwards 2;
			-moz-animation:animacion 20s forwards 2;
			-o-animation:animacion 20s forwards 2;
			animation:animacion 20s forwards 2;
	}
	.st6{fill:none;stroke:#CCCCCC;stroke-width:2;stroke-miterlimit:10;stroke-dasharray:11.9473,11.9473;
				-webkit-animation:animacion 30s forwards 2;
			-moz-animation:animacion 30s forwards 2;
			-o-animation:animacion 30s forwards 2;
			animation:animacion 30s forwards 2;
	}
	.st7{fill:none;stroke:#CCCCCC;stroke-width:2;stroke-miterlimit:10;stroke-dasharray:12.0633,12.0633;
				-webkit-animation:animacion 40s forwards 2;
			-moz-animation:animacion 40s forwards 2;
			-o-animation:animacion 40s forwards 2;
			animation:animacion 40s forwards 2;
	}
	.st8{fill:none;stroke:#CCCCCC;stroke-width:2;stroke-miterlimit:10;stroke-dasharray:12.1049,12.1049;
				-webkit-animation:animacion 50s forwards 2;
			-moz-animation:animacion 50s forwards 2;
			-o-animation:animacion 50s forwards 2;
			animation:animacion 50s forwards 2;
	}

	.st9{
		fill:transparent;
	-webkit-animation:qr 20s forwards 0s;
    -moz-animation:qr 20s forwards 0s;
    -o-animation:qr 20s forwards 0s;
    animation:qr 20s forwards 0s;    
	}
	.st10{
		fill:transparent;
	-webkit-animation:logo 20s forwards 0s;
    -moz-animation:logo 20s forwards 0s;
    -o-animation:logo 20s forwards 0s;
    animation:logo 20s forwards 0s;    
	}
<!-- lineas -->
	@-webkit-keyframes animacion {
    from{
        stroke-dashoffset:2500;
    }
    to{
        stroke-dashoffset:0;
    }
}
@keyframes animacion {
    from{
        stroke-dashoffset:2500;
    }
    to{
        stroke-dashoffset:0;
    }
}
<!-- Color Degradado -->
@-webkit-keyframes logo {
    from{
        fill:transparent;
    }
    to{
        fill:#000;
    }
}
@keyframes logo {
    from{
        fill:transparent;
    }
    to{
        fill:#000;
    }
}
<!-- Color QR -->
@-webkit-keyframes qr {
    from{
        fill:transparent;
    }
    to{
        fill:#fff;
    }
}
@keyframes qr {
    from{
        fill:transparent;
    }
    to{
        fill:#fff;
    }
}
</style>
<g id="Trazo">
	<g id="Trazo_1_">
		<g>
			<circle class="st0" cx="540" cy="539.2" r="401.1"/>
			<circle class="st1" cx="540" cy="539.2" r="266"/>
			<g>
				<line class="st2" x1="5.5" y1="138.1" x2="11.5" y2="138.1"/>
				<line class="st3" x1="23.4" y1="138.1" x2="1062.5" y2="138.1"/>
				<line class="st2" x1="1068.4" y1="138.1" x2="1074.4" y2="138.1"/>
			</g>
			<g>
				<line class="st2" x1="5.5" y1="940.2" x2="11.5" y2="940.2"/>
				<line class="st3" x1="23.4" y1="940.2" x2="1062.5" y2="940.2"/>
				<line class="st2" x1="1068.4" y1="940.2" x2="1074.4" y2="940.2"/>
			</g>
			<g>
				<line class="st2" x1="941" y1="0" x2="941" y2="6"/>
				<line class="st4" x1="941" y1="18" x2="941" y2="1717.3"/>
				<line class="st2" x1="941" y1="1723.3" x2="941" y2="1729.3"/>
			</g>
			<g>
				<line class="st2" x1="138.9" y1="4.7" x2="138.9" y2="10.7"/>
				<line class="st5" x1="138.9" y1="22.8" x2="138.9" y2="1898.7"/>
				<line class="st2" x1="138.9" y1="1904.8" x2="138.9" y2="1910.8"/>
			</g>
			<g>
				<line class="st2" x1="1074.4" y1="540" x2="1068.4" y2="540"/>
				<line class="st3" x1="1056.6" y1="540" x2="17.5" y2="540"/>
				<line class="st2" x1="11.5" y1="540" x2="5.5" y2="540"/>
			</g>
			<g>
				<line class="st2" x1="1074.4" y1="406.6" x2="1068.4" y2="406.6"/>
				<line class="st3" x1="1056.6" y1="406.6" x2="17.5" y2="406.6"/>
				<line class="st2" x1="11.5" y1="406.6" x2="5.5" y2="406.6"/>
			</g>
			<g>
				<line class="st2" x1="539.1" y1="0" x2="539.1" y2="6"/>
				<line class="st6" x1="539.1" y1="17.9" x2="539.1" y2="1302.3"/>
				<line class="st2" x1="539.1" y1="1308.3" x2="539.1" y2="1314.3"/>
			</g>
			<g>
				<line class="st2" x1="672.6" y1="0.9" x2="672.6" y2="6.9"/>
				<line class="st7" x1="672.6" y1="19" x2="672.6" y2="1364.1"/>
				<line class="st2" x1="672.6" y1="1370.1" x2="672.6" y2="1376.1"/>
			</g>
			<g>
				<line class="st2" x1="7.4" y1="1076.5" x2="13.4" y2="1076.5"/>
				<line class="st8" x1="25.5" y1="1076.5" x2="1060.5" y2="1076.5"/>
				<line class="st2" x1="1066.5" y1="1076.5" x2="1072.5" y2="1076.5"/>
			</g>
			<g>
				<line class="st2" x1="7.4" y1="1239.8" x2="13.4" y2="1239.8"/>
				<line class="st8" x1="25.5" y1="1239.8" x2="1060.5" y2="1239.8"/>
				<line class="st2" x1="1066.5" y1="1239.8" x2="1072.5" y2="1239.8"/>
			</g>
		</g>
	</g>
</g>
<g id="QR">
	<path id="QR_1_" class="st9" d="M471.1,1383.1h12.3v12.3h-12.3V1383.1z M521.3,1383.1h12.3v12.3h-12.3V1383.1z M559.2,1383.1h12.3
		v12.3h-12.3V1383.1z M572.4,1383.1h12.3v12.3h-12.3V1383.1z M584.7,1383.1H597v12.3h-12.3V1383.1z M598,1383.1h12.3v12.3H598
		V1383.1z M471.1,1396.4h12.3v12.3h-12.3V1396.4z M483.4,1396.4h12.3v12.3h-12.3V1396.4z M496.7,1396.4H509v12.3h-12.3V1396.4z
		 M521.3,1396.4h12.3v12.3h-12.3V1396.4z M534.5,1396.4h12.3v12.3h-12.3V1396.4z M546.8,1396.4h12.3v12.3h-12.3V1396.4z
		 M572.4,1396.4h12.3v12.3h-12.3V1396.4z M509,1408.7h12.3v12.3H509V1408.7z M521.3,1408.7h12.3v12.3h-12.3V1408.7z M559.2,1408.7
		h12.3v12.3h-12.3V1408.7z M572.4,1408.7h12.3v12.3h-12.3V1408.7z M598,1408.7h12.3v12.3H598V1408.7z M610.3,1408.7h12.3v12.3h-12.3
		V1408.7z M483.4,1421h12.3v12.3h-12.3V1421z M496.7,1421H509v12.3h-12.3V1421z M509,1421h12.3v12.3H509V1421z M521.3,1421h12.3
		v12.3h-12.3V1421z M534.5,1421h12.3v12.3h-12.3V1421z M546.8,1421h12.3v12.3h-12.3V1421z M584.7,1421H597v12.3h-12.3V1421z
		 M471.1,1434.2h12.3v12.3h-12.3V1434.2z M483.4,1434.2h12.3v12.3h-12.3V1434.2z M496.7,1434.2H509v12.3h-12.3V1434.2z
		 M521.3,1434.2h12.3v12.3h-12.3V1434.2z M534.5,1434.2h12.3v12.3h-12.3V1434.2z M559.2,1434.2h12.3v12.3h-12.3V1434.2z
		 M572.4,1434.2h12.3v12.3h-12.3V1434.2z M584.7,1434.2H597v12.3h-12.3V1434.2z M610.3,1434.2h12.3v12.3h-12.3V1434.2z
		 M457.8,1446.5h12.3v12.3h-12.3V1446.5z M471.1,1446.5h12.3v12.3h-12.3V1446.5z M483.4,1446.5h12.3v12.3h-12.3V1446.5z M509,1446.5
		h12.3v12.3H509V1446.5z M521.3,1446.5h12.3v12.3h-12.3V1446.5z M534.5,1446.5h12.3v12.3h-12.3V1446.5z M572.4,1446.5h12.3v12.3
		h-12.3V1446.5z M584.7,1446.5H597v12.3h-12.3V1446.5z M598,1446.5h12.3v12.3H598V1446.5z M610.3,1446.5h12.3v12.3h-12.3V1446.5z
		 M457.8,1459.8h12.3v12.3h-12.3V1459.8z M483.4,1459.8h12.3v12.3h-12.3V1459.8z M509,1459.8h12.3v12.3H509V1459.8z M534.5,1459.8
		h12.3v12.3h-12.3V1459.8z M559.2,1459.8h12.3v12.3h-12.3V1459.8z M584.7,1459.8H597v12.3h-12.3V1459.8z M610.3,1459.8h12.3v12.3
		h-12.3V1459.8z M471.1,1472.1h12.3v12.3h-12.3V1472.1z M483.4,1472.1h12.3v12.3h-12.3V1472.1z M496.7,1472.1H509v12.3h-12.3V1472.1
		z M509,1472.1h12.3v12.3H509V1472.1z M534.5,1472.1h12.3v12.3h-12.3V1472.1z M572.4,1472.1h12.3v12.3h-12.3V1472.1z M584.7,1472.1
		H597v12.3h-12.3V1472.1z M598,1472.1h12.3v12.3H598V1472.1z M356.5,1484.4h12.3v12.3h-12.3V1484.4z M394.4,1484.4h12.3v12.3h-12.3
		V1484.4z M420,1484.4h12.3v12.3H420V1484.4z M433.2,1484.4h12.3v12.3h-12.3V1484.4z M457.8,1484.4h12.3v12.3h-12.3V1484.4z
		 M471.1,1484.4h12.3v12.3h-12.3V1484.4z M496.7,1484.4H509v12.3h-12.3V1484.4z M546.8,1484.4h12.3v12.3h-12.3V1484.4z
		 M584.7,1484.4H597v12.3h-12.3V1484.4z M622.6,1484.4h12.3v12.3h-12.3V1484.4z M648.2,1484.4h12.3v12.3h-12.3V1484.4z
		 M356.5,1497.7h12.3v12.3h-12.3V1497.7z M369.8,1497.7h12.3v12.3h-12.3V1497.7z M394.4,1497.7h12.3v12.3h-12.3V1497.7z
		 M407.7,1497.7H420v12.3h-12.3V1497.7z M420,1497.7h12.3v12.3H420V1497.7z M471.1,1497.7h12.3v12.3h-12.3V1497.7z M534.5,1497.7
		h12.3v12.3h-12.3V1497.7z M546.8,1497.7h12.3v12.3h-12.3V1497.7z M610.3,1497.7h12.3v12.3h-12.3V1497.7z M622.6,1497.7h12.3v12.3
		h-12.3V1497.7z M635.8,1497.7h12.3v12.3h-12.3V1497.7z M673.7,1497.7H686v12.3h-12.3V1497.7z M711.6,1497.7h12.3v12.3h-12.3V1497.7
		z M356.5,1510h12.3v12.3h-12.3V1510z M394.4,1510h12.3v12.3h-12.3V1510z M407.7,1510H420v12.3h-12.3V1510z M433.2,1510h12.3v12.3
		h-12.3V1510z M471.1,1510h12.3v12.3h-12.3V1510z M496.7,1510H509v12.3h-12.3V1510z M559.2,1510h12.3v12.3h-12.3V1510z M572.4,1510
		h12.3v12.3h-12.3V1510z M598,1510h12.3v12.3H598V1510z M622.6,1510h12.3v12.3h-12.3V1510z M635.8,1510h12.3v12.3h-12.3V1510z
		 M648.2,1510h12.3v12.3h-12.3V1510z M661.4,1510h12.3v12.3h-12.3V1510z M673.7,1510H686v12.3h-12.3V1510z M686,1510h12.3v12.3H686
		V1510z M699.3,1510h12.3v12.3h-12.3V1510z M369.8,1523.2h12.3v12.3h-12.3V1523.2z M382.1,1523.2h12.3v12.3h-12.3V1523.2z
		 M407.7,1523.2H420v12.3h-12.3V1523.2z M445.5,1523.2h12.3v12.3h-12.3V1523.2z M471.1,1523.2h12.3v12.3h-12.3V1523.2z
		 M483.4,1523.2h12.3v12.3h-12.3V1523.2z M534.5,1523.2h12.3v12.3h-12.3V1523.2z M546.8,1523.2h12.3v12.3h-12.3V1523.2z
		 M584.7,1523.2H597v12.3h-12.3V1523.2z M598,1523.2h12.3v12.3H598V1523.2z M686,1523.2h12.3v12.3H686V1523.2z M699.3,1523.2h12.3
		v12.3h-12.3V1523.2z M369.8,1535.5h12.3v12.3h-12.3V1535.5z M382.1,1535.5h12.3v12.3h-12.3V1535.5z M407.7,1535.5H420v12.3h-12.3
		V1535.5z M433.2,1535.5h12.3v12.3h-12.3V1535.5z M445.5,1535.5h12.3v12.3h-12.3V1535.5z M457.8,1535.5h12.3v12.3h-12.3V1535.5z
		 M471.1,1535.5h12.3v12.3h-12.3V1535.5z M496.7,1535.5H509v12.3h-12.3V1535.5z M509,1535.5h12.3v12.3H509V1535.5z M559.2,1535.5
		h12.3v12.3h-12.3V1535.5z M622.6,1535.5h12.3v12.3h-12.3V1535.5z M635.8,1535.5h12.3v12.3h-12.3V1535.5z M673.7,1535.5H686v12.3
		h-12.3V1535.5z M699.3,1535.5h12.3v12.3h-12.3V1535.5z M711.6,1535.5h12.3v12.3h-12.3V1535.5z M356.5,1547.8h12.3v12.3h-12.3
		V1547.8z M382.1,1547.8h12.3v12.3h-12.3V1547.8z M394.4,1547.8h12.3v12.3h-12.3V1547.8z M407.7,1547.8H420v12.3h-12.3V1547.8z
		 M445.5,1547.8h12.3v12.3h-12.3V1547.8z M457.8,1547.8h12.3v12.3h-12.3V1547.8z M471.1,1547.8h12.3v12.3h-12.3V1547.8z
		 M483.4,1547.8h12.3v12.3h-12.3V1547.8z M496.7,1547.8H509v12.3h-12.3V1547.8z M546.8,1547.8h12.3v12.3h-12.3V1547.8z
		 M572.4,1547.8h12.3v12.3h-12.3V1547.8z M598,1547.8h12.3v12.3H598V1547.8z M610.3,1547.8h12.3v12.3h-12.3V1547.8z M622.6,1547.8
		h12.3v12.3h-12.3V1547.8z M394.4,1561.1h12.3v12.3h-12.3V1561.1z M433.2,1561.1h12.3v12.3h-12.3V1561.1z M457.8,1561.1h12.3v12.3
		h-12.3V1561.1z M471.1,1561.1h12.3v12.3h-12.3V1561.1z M483.4,1561.1h12.3v12.3h-12.3V1561.1z M546.8,1561.1h12.3v12.3h-12.3
		V1561.1z M559.2,1561.1h12.3v12.3h-12.3V1561.1z M584.7,1561.1H597v12.3h-12.3V1561.1z M622.6,1561.1h12.3v12.3h-12.3V1561.1z
		 M648.2,1561.1h12.3v12.3h-12.3V1561.1z M673.7,1561.1H686v12.3h-12.3V1561.1z M686,1561.1h12.3v12.3H686V1561.1z M699.3,1561.1
		h12.3v12.3h-12.3V1561.1z M711.6,1561.1h12.3v12.3h-12.3V1561.1z M356.5,1573.4h12.3v12.3h-12.3V1573.4z M394.4,1573.4h12.3v12.3
		h-12.3V1573.4z M407.7,1573.4H420v12.3h-12.3V1573.4z M420,1573.4h12.3v12.3H420V1573.4z M457.8,1573.4h12.3v12.3h-12.3V1573.4z
		 M471.1,1573.4h12.3v12.3h-12.3V1573.4z M521.3,1573.4h12.3v12.3h-12.3V1573.4z M534.5,1573.4h12.3v12.3h-12.3V1573.4z
		 M559.2,1573.4h12.3v12.3h-12.3V1573.4z M572.4,1573.4h12.3v12.3h-12.3V1573.4z M584.7,1573.4H597v12.3h-12.3V1573.4z M598,1573.4
		h12.3v12.3H598V1573.4z M635.8,1573.4h12.3v12.3h-12.3V1573.4z M648.2,1573.4h12.3v12.3h-12.3V1573.4z M673.7,1573.4H686v12.3
		h-12.3V1573.4z M699.3,1573.4h12.3v12.3h-12.3V1573.4z M356.5,1585.7h12.3v12.3h-12.3V1585.7z M382.1,1585.7h12.3v12.3h-12.3
		V1585.7z M394.4,1585.7h12.3v12.3h-12.3V1585.7z M420,1585.7h12.3v12.3H420V1585.7z M433.2,1585.7h12.3v12.3h-12.3V1585.7z
		 M445.5,1585.7h12.3v12.3h-12.3V1585.7z M457.8,1585.7h12.3v12.3h-12.3V1585.7z M509,1585.7h12.3v12.3H509V1585.7z M521.3,1585.7
		h12.3v12.3h-12.3V1585.7z M534.5,1585.7h12.3v12.3h-12.3V1585.7z M546.8,1585.7h12.3v12.3h-12.3V1585.7z M559.2,1585.7h12.3v12.3
		h-12.3V1585.7z M610.3,1585.7h12.3v12.3h-12.3V1585.7z M648.2,1585.7h12.3v12.3h-12.3V1585.7z M699.3,1585.7h12.3v12.3h-12.3
		V1585.7z M382.1,1599h12.3v12.3h-12.3V1599z M420,1599h12.3v12.3H420V1599z M445.5,1599h12.3v12.3h-12.3V1599z M471.1,1599h12.3
		v12.3h-12.3V1599z M483.4,1599h12.3v12.3h-12.3V1599z M509,1599h12.3v12.3H509V1599z M546.8,1599h12.3v12.3h-12.3V1599z
		 M584.7,1599H597v12.3h-12.3V1599z M622.6,1599h12.3v12.3h-12.3V1599z M635.8,1599h12.3v12.3h-12.3V1599z M648.2,1599h12.3v12.3
		h-12.3V1599z M673.7,1599H686v12.3h-12.3V1599z M711.6,1599h12.3v12.3h-12.3V1599z M356.5,1611.3h12.3v12.3h-12.3V1611.3z
		 M382.1,1611.3h12.3v12.3h-12.3V1611.3z M394.4,1611.3h12.3v12.3h-12.3V1611.3z M420,1611.3h12.3v12.3H420V1611.3z M433.2,1611.3
		h12.3v12.3h-12.3V1611.3z M445.5,1611.3h12.3v12.3h-12.3V1611.3z M471.1,1611.3h12.3v12.3h-12.3V1611.3z M521.3,1611.3h12.3v12.3
		h-12.3V1611.3z M572.4,1611.3h12.3v12.3h-12.3V1611.3z M610.3,1611.3h12.3v12.3h-12.3V1611.3z M622.6,1611.3h12.3v12.3h-12.3
		V1611.3z M648.2,1611.3h12.3v12.3h-12.3V1611.3z M661.4,1611.3h12.3v12.3h-12.3V1611.3z M699.3,1611.3h12.3v12.3h-12.3V1611.3z
		 M711.6,1611.3h12.3v12.3h-12.3V1611.3z M420,1624.5h12.3v12.3H420V1624.5z M496.7,1624.5H509v12.3h-12.3V1624.5z M509,1624.5h12.3
		v12.3H509V1624.5z M521.3,1624.5h12.3v12.3h-12.3V1624.5z M546.8,1624.5h12.3v12.3h-12.3V1624.5z M559.2,1624.5h12.3v12.3h-12.3
		V1624.5z M572.4,1624.5h12.3v12.3h-12.3V1624.5z M610.3,1624.5h12.3v12.3h-12.3V1624.5z M622.6,1624.5h12.3v12.3h-12.3V1624.5z
		 M699.3,1624.5h12.3v12.3h-12.3V1624.5z M711.6,1624.5h12.3v12.3h-12.3V1624.5z M356.5,1636.8h12.3v12.3h-12.3V1636.8z
		 M382.1,1636.8h12.3v12.3h-12.3V1636.8z M420,1636.8h12.3v12.3H420V1636.8z M433.2,1636.8h12.3v12.3h-12.3V1636.8z M445.5,1636.8
		h12.3v12.3h-12.3V1636.8z M471.1,1636.8h12.3v12.3h-12.3V1636.8z M483.4,1636.8h12.3v12.3h-12.3V1636.8z M496.7,1636.8H509v12.3
		h-12.3V1636.8z M534.5,1636.8h12.3v12.3h-12.3V1636.8z M559.2,1636.8h12.3v12.3h-12.3V1636.8z M584.7,1636.8H597v12.3h-12.3V1636.8
		z M610.3,1636.8h12.3v12.3h-12.3V1636.8z M622.6,1636.8h12.3v12.3h-12.3V1636.8z M635.8,1636.8h12.3v12.3h-12.3V1636.8z
		 M648.2,1636.8h12.3v12.3h-12.3V1636.8z M661.4,1636.8h12.3v12.3h-12.3V1636.8z M686,1636.8h12.3v12.3H686V1636.8z M457.8,1649.1
		h12.3v12.3h-12.3V1649.1z M483.4,1649.1h12.3v12.3h-12.3V1649.1z M496.7,1649.1H509v12.3h-12.3V1649.1z M509,1649.1h12.3v12.3H509
		V1649.1z M521.3,1649.1h12.3v12.3h-12.3V1649.1z M546.8,1649.1h12.3v12.3h-12.3V1649.1z M559.2,1649.1h12.3v12.3h-12.3V1649.1z
		 M610.3,1649.1h12.3v12.3h-12.3V1649.1z M661.4,1649.1h12.3v12.3h-12.3V1649.1z M686,1649.1h12.3v12.3H686V1649.1z M699.3,1649.1
		h12.3v12.3h-12.3V1649.1z M711.6,1649.1h12.3v12.3h-12.3V1649.1z M521.3,1662.4h12.3v12.3h-12.3V1662.4z M534.5,1662.4h12.3v12.3
		h-12.3V1662.4z M546.8,1662.4h12.3v12.3h-12.3V1662.4z M572.4,1662.4h12.3v12.3h-12.3V1662.4z M610.3,1662.4h12.3v12.3h-12.3
		V1662.4z M635.8,1662.4h12.3v12.3h-12.3V1662.4z M661.4,1662.4h12.3v12.3h-12.3V1662.4z M699.3,1662.4h12.3v12.3h-12.3V1662.4z
		 M457.8,1674.7h12.3v12.3h-12.3V1674.7z M471.1,1674.7h12.3v12.3h-12.3V1674.7z M521.3,1674.7h12.3v12.3h-12.3V1674.7z
		 M559.2,1674.7h12.3v12.3h-12.3V1674.7z M584.7,1674.7H597v12.3h-12.3V1674.7z M610.3,1674.7h12.3v12.3h-12.3V1674.7z
		 M661.4,1674.7h12.3v12.3h-12.3V1674.7z M673.7,1674.7H686v12.3h-12.3V1674.7z M686,1674.7h12.3v12.3H686V1674.7z M699.3,1674.7
		h12.3v12.3h-12.3V1674.7z M483.4,1688h12.3v12.3h-12.3V1688z M509,1688h12.3v12.3H509V1688z M534.5,1688h12.3v12.3h-12.3V1688z
		 M546.8,1688h12.3v12.3h-12.3V1688z M584.7,1688H597v12.3h-12.3V1688z M610.3,1688h12.3v12.3h-12.3V1688z M622.6,1688h12.3v12.3
		h-12.3V1688z M635.8,1688h12.3v12.3h-12.3V1688z M648.2,1688h12.3v12.3h-12.3V1688z M661.4,1688h12.3v12.3h-12.3V1688z M699.3,1688
		h12.3v12.3h-12.3V1688z M457.8,1700.3h12.3v12.3h-12.3V1700.3z M471.1,1700.3h12.3v12.3h-12.3V1700.3z M534.5,1700.3h12.3v12.3
		h-12.3V1700.3z M546.8,1700.3h12.3v12.3h-12.3V1700.3z M559.2,1700.3h12.3v12.3h-12.3V1700.3z M598,1700.3h12.3v12.3H598V1700.3z
		 M635.8,1700.3h12.3v12.3h-12.3V1700.3z M648.2,1700.3h12.3v12.3h-12.3V1700.3z M661.4,1700.3h12.3v12.3h-12.3V1700.3z
		 M673.7,1700.3H686v12.3h-12.3V1700.3z M686,1700.3h12.3v12.3H686V1700.3z M711.6,1700.3h12.3v12.3h-12.3V1700.3z M509,1712.6h12.3
		v12.3H509V1712.6z M610.3,1712.6h12.3v12.3h-12.3V1712.6z M661.4,1712.6h12.3v12.3h-12.3V1712.6z M673.7,1712.6H686v12.3h-12.3
		V1712.6z M686,1712.6h12.3v12.3H686V1712.6z M711.6,1712.6h12.3v12.3h-12.3V1712.6z M471.1,1725.8h12.3v12.3h-12.3V1725.8z
		 M483.4,1725.8h12.3v12.3h-12.3V1725.8z M521.3,1725.8h12.3v12.3h-12.3V1725.8z M534.5,1725.8h12.3v12.3h-12.3V1725.8z
		 M546.8,1725.8h12.3v12.3h-12.3V1725.8z M598,1725.8h12.3v12.3H598V1725.8z M610.3,1725.8h12.3v12.3h-12.3V1725.8z M661.4,1725.8
		h12.3v12.3h-12.3V1725.8z M699.3,1725.8h12.3v12.3h-12.3V1725.8z M457.8,1738.1h12.3v12.3h-12.3V1738.1z M521.3,1738.1h12.3v12.3
		h-12.3V1738.1z M610.3,1738.1h12.3v12.3h-12.3V1738.1z M622.6,1738.1h12.3v12.3h-12.3V1738.1z M635.8,1738.1h12.3v12.3h-12.3
		V1738.1z M648.2,1738.1h12.3v12.3h-12.3V1738.1z M661.4,1738.1h12.3v12.3h-12.3V1738.1z M673.7,1738.1H686v12.3h-12.3V1738.1z
		 M699.3,1738.1h12.3v12.3h-12.3V1738.1z M432.2,1383.1h-62.3h-13.3v13.3v62.3v13.3h13.3h62.3h13.3v-13.3v-62.3v-13.3H432.2z
		 M432.3,1458.8h-62.5v-62.5h62.5V1458.8z M710.5,1383.1h-62.3h-13.3v13.3v62.3v13.3h13.3h62.3h13.3v-13.3v-62.3v-13.3H710.5z
		 M710.6,1458.8h-62.5v-62.5h62.5V1458.8z M432.2,1661.5h-62.3h-13.3v13.3v62.3v13.3h13.3h62.3h13.3v-13.3v-62.3v-13.3H432.2z
		 M432.3,1737.2h-62.5v-62.5h62.5V1737.2z M382.1,1408.7H420v37.9h-37.9V1408.7z M660.5,1408.7h37.9v37.9h-37.9V1408.7z M382.1,1687
		H420v37.9h-37.9V1687z"/>
</g>
<g id="LOGO">
	<radialGradient id="LOGO_2_" cx="538.8784" cy="539.7709" r="699.5715" gradientUnits="userSpaceOnUse">
		<stop  offset="0" style="stop-color:#EDEDED"/>
		<stop  offset="0.5" style="stop-color:#9D9D9C"/>
		<stop  offset="1" style="stop-color:#5F5F5D"/>
	</radialGradient>
	<path id="LOGO_1_" class="st10" d="M916.8,409.8c14.1,41.1,21.4,84,21.6,127.7H806.2c-0.2,0-0.3,0-0.5,0c-0.4,0-1,0-1.8,0
		c-1.6,0-3.9-0.1-6.9-0.1c-5.9-0.1-14.9-0.1-26.6-0.2c-21.7-0.1-52.7-0.2-94.8-0.3V409.8H916.8 M941.3,539.5
		c0-46.5-7.9-91.1-22.5-132.6H539.4v133.4c0,0,262.4,0.1,266.8,0.2c-1.1,146-119.7,264.9-266,264.9c-146.9,0-266-119.1-266-266
		c0-145.8,117.3-264.1,262.6-265.9V138.5c-220,1.8-397.7,180.6-397.7,401c0,221.5,179.6,401.1,401.1,401.1
		c220.9,0,400.1-179.5,401-400.2C941.3,540.4,941.3,539.8,941.3,539.5z M191.6,1242h-55.2v-166.7h55.2c60.4,0,95,29.5,95,80.9
		C286.6,1209.1,250.2,1242,191.6,1242z M163.5,1219.5h28c21.1,0,38.4-6,49.8-17.4c11-10.9,16.9-26.8,16.9-45.9
		c0-38.6-23.1-58.9-66.7-58.9h-28L163.5,1219.5L163.5,1219.5z M405.3,1242h-90.1v-166.7h87.2v22.7h-60.1v46.3h56.2v22.7h-56.2v51.7
		h63L405.3,1242L405.3,1242z M478.6,1245.9c-28.4,0-49-15.1-49.8-15.8l-0.9-0.7v-27.9l3.9,3.2c0.2,0.2,22.1,18.2,46.9,18.2
		c16.4,0,25.1-7.7,25.1-22.2c0-18.4-14.5-24.3-31.4-31.1c-21-8.3-44.8-17.7-44.8-52.1c0-27.9,20-45.9,51-45.9
		c23.3,0,41.4,11.1,42.1,11.6l1.1,0.7v25.1l-3.7-2.4c-0.2-0.1-19.2-12.3-39.6-12.3c-16.3,0-24.6,7.3-24.6,21.7
		c0,17.5,13.9,24.4,32.1,31.6c20,8.1,44.8,18.1,44.8,51.3C530.8,1229.2,512.3,1245.9,478.6,1245.9z M586.5,1242h-27.6v-166.7h27.6
		V1242z M701.6,1246.6c-24.1,0-46.1-8.2-61.8-23c-17-16-25.9-38.4-25.9-65c0-26.5,9-49,26-64.9c15.8-14.8,37.8-22.9,62-22.9
		c32.7,0,57.7,16.2,58.7,16.9l1.1,0.7v29.5l-3.8-3c-0.3-0.2-26.7-20.9-55.9-20.9c-35.7,0-59.7,25.9-59.7,64.5s23.9,64.5,59.4,64.5
		c18.4,0,37.3-9.6,42.1-12.2v-48.7h27.1v60.1l-0.8,0.7C769.1,1224.1,743.9,1246.6,701.6,1246.6z M768.5,1221.4L768.5,1221.4
		L768.5,1221.4z M945.3,1251.7h-5.9l-0.7-0.8c-72.4-82.1-97.9-112.9-106.9-124.5c0.4,12.2,0.9,42.2,0.9,113.2v2.4h-25.9v-176.5h5.9
		l0.7,0.8c72.5,83,98,114.4,107,126.1c-0.3-12.2-0.7-42.3-0.7-114.8v-2.4h25.6L945.3,1251.7L945.3,1251.7z M829.1,1118.7
		L829.1,1118.7L829.1,1118.7z"/>
</g>
</svg>
